<svg id="Layer_1" data-name="Layer 1" xmlns="http://www.w3.org/2000/svg" viewBox="0 0 358 358"><defs><style>.cls-1{fill:#1a58d1;}</style></defs><title>garafon_icon</title><path class="cls-1" d="M58.58,86.86h88.7a5.37,5.37,0,1,0,0-10.74H58.58a5.37,5.37,0,0,0,0,10.74ZM90.73,311.63H5.7a5.37,5.37,0,0,0,0,10.74h85a5.37,5.37,0,0,0,0-10.74Zm266.94-137.4V153.17c0-8.23-7.13-15.34-17.36-18.56V120c0-8.23-7.14-15.51-17.84-18.71-8.05-15-24-27.51-44.56-35l-19.63-7.33h2.6c2.51,0,4.55-2.51,4.55-5.59V25.73c0-8.82-5.83-16-13-16h-38c-7.17,0-13,7.17-13,16v27.6c0,3.09,2,5.59,4.55,5.59h2.6l-19.63,7.33c-20.57,7.52-36.5,20-44.56,35-10.7,3.2-17.84,10.48-17.84,18.71v14.62c-10.24,3.23-17.36,10.33-17.36,18.56v3.53H24a5.37,5.37,0,0,0,0,10.74h85.18v6.78c0,8.23,7.13,15.34,17.36,18.56v18.63c-10.24,3.23-17.36,10.33-17.36,18.56v7.3H61.93a5.37,5.37,0,0,0,0,10.74h47.26v3c0,8.23,7.13,15.34,17.36,18.56v18.63c-10.24,3.23-17.36,10.33-17.36,18.57v21.05c0,11.26,13.33,20.42,29.71,20.42H328c16.38,0,29.71-9.16,29.71-20.42V306.79c0-8.23-7.13-15.34-17.36-18.57V269.6c10.23-3.23,17.36-10.33,17.36-18.56V230c0-8.23-7.13-15.33-17.36-18.56V192.79C350.54,189.56,357.67,182.46,357.67,174.23ZM210.51,25.73c0-2.65,1.75-4.8,3.91-4.8h38c2.16,0,3.91,2.15,3.91,4.8v22H210.51ZM341.39,306.79v21.06c0,5.09-6,9.23-13.44,9.23H138.9c-7.41,0-13.44-4.14-13.44-9.23V306.79c0-5.09,6-9.23,13.44-9.23H328C335.37,297.56,341.39,301.7,341.39,306.79Zm0-76.81V251c0,5.09-6,9.23-13.44,9.23H281.17c-4.5,0-8.14,2.51-8.14,5.59s3.64,5.59,8.14,5.59H324v14.92H142.83V271.46H246.45c4.5,0,8.14-2.51,8.14-5.59s-3.64-5.59-8.14-5.59H138.9c-7.41,0-13.44-4.14-13.44-9.23v-3H228.65a5.37,5.37,0,0,0,0-10.74H125.46V230c0-5.09,6-9.23,13.44-9.23H328C335.37,220.75,341.39,224.89,341.39,230ZM142.83,209.56V194.65H324v14.91ZM328,183.46H138.9c-7.41,0-13.44-4.14-13.44-9.23v-6.78h21.81a5.37,5.37,0,1,0,0-10.74H125.46v-3.53c0-5.09,6-9.23,13.44-9.23h34.85c4.5,0,8.14-2.51,8.14-5.6s-3.64-5.59-8.14-5.59H142.83V120c0-4,3.78-7.54,9.3-8.77H279c4.5,0,8.14-2.5,8.14-5.59S283.5,100,279,100H162.88c7.9-11,21.16-20,37.61-25.24,2.88-.92,4.72-2.9,4.72-5.08l12.44-10.79h31.53l12.45,5.2H229.09c-4.5,0-8.14,2.5-8.14,5.59s3.64,5.6,8.14,5.6h38.8c18.76,6.3,33.21,17.52,39.94,31.06.43,2.22,2.78,4.11,6.07,4.68,6,1,10.13,4.71,10.13,8.94v12.77H199.79c-4.5,0-8.14,2.5-8.14,5.59s3.65,5.6,8.14,5.6H328c7.41,0,13.44,4.14,13.44,9.23v21.06C341.39,179.32,335.37,183.46,328,183.46Z"/></svg>