<svg id="Layer_1" data-name="Layer 1" xmlns="http://www.w3.org/2000/svg" viewBox="0 0 358 358"><defs><style>.cls-1{fill:#1a58d1;}</style></defs><title>lista_icon</title><path class="cls-1" d="M90.84,234a46.68,46.68,0,1,0,46.68,46.68A46.73,46.73,0,0,0,90.84,234Zm0,78.51a31.77,31.77,0,1,1,31.77-31.77A31.79,31.79,0,0,1,90.84,312.56ZM161.32,89.08h145a7.49,7.49,0,0,0,0-15h-145a7.49,7.49,0,0,0,0,15ZM90.84,134.42a46.68,46.68,0,1,0,46.68,46.68A46.73,46.73,0,0,0,90.84,134.42Zm0,78.45a31.77,31.77,0,1,1,31.77-31.77A31.79,31.79,0,0,1,90.84,212.87Zm49.9-180.09L124.38,49a46.67,46.67,0,1,0,11.2,46,7.47,7.47,0,1,0-14.3-4.32,31.86,31.86,0,1,1-7.49-31.1L91.94,81.35,79.4,68.75a7.48,7.48,0,0,0-10.53-.06,7.37,7.37,0,0,0-.06,10.53L86.58,97.11a7.42,7.42,0,0,0,10.53,0l54.11-53.8a7.42,7.42,0,1,0-10.47-10.53Zm165.6,140.83h-145a7.49,7.49,0,0,0,0,15h145a7.49,7.49,0,0,0,0-15Zm0,99.69h-145a7.49,7.49,0,0,0,0,15h145a7.49,7.49,0,0,0,0-15Z"/></svg>