<svg id="Layer_1" data-name="Layer 1" xmlns="http://www.w3.org/2000/svg" viewBox="0 0 358 358"><defs><style>.cls-1{fill:#1a58d1;}</style></defs><title>logo_icon</title><path class="cls-1" d="M355.69,143c.1.46.18.9.26,1.33a82.3,82.3,0,0,0-14.73-43.78h0A178.61,178.61,0,0,0,180.67.33C82,.33,2,80.31,2,179a178.66,178.66,0,0,0,310,121.2l-.05-.05a67.86,67.86,0,0,0-50.24-113.49c-14,0-27.93,5.08-39.45,12.82-12,8.06-23.58,14.45-38.16,16.55a77,77,0,0,1-10.93.78,78.38,78.38,0,0,1-78.63-78.38,78.34,78.34,0,0,1,7.69-33.92q-1.59,3.29-3,6.67,1.41-3.38,3-6.67c.28-.59.59-1.2.9-1.79A133.58,133.58,0,0,1,339.8,98.51a82.81,82.81,0,0,0-66.63-33.58c-.41,0-.82,0-1.2,0a34.67,34.67,0,0,1,34.1,32,23.65,23.65,0,0,1,.13,2.69,35.23,35.23,0,0,1-1.59,10.45,34.67,34.67,0,0,1-6.17,11.45A34,34,0,0,1,294.2,126a34.73,34.73,0,0,0-1.26,42,32.82,32.82,0,0,0,5.61,6.15,34.73,34.73,0,0,0,57.1-21.44,30.66,30.66,0,0,0,.36-4.87A33.3,33.3,0,0,0,355.69,143ZM173.1,232.16a92.64,92.64,0,0,0,13.12-.94c18.16-2.61,32.14-10.67,44.54-19,9.81-6.58,20.77-10.21,30.89-10.21a52.45,52.45,0,0,1,43.89,23.68A51.54,51.54,0,0,1,312,239.56a118.21,118.21,0,0,1-196.56-27.11A94.75,94.75,0,0,0,173.1,232.16ZM347.87,147A34.47,34.47,0,0,1,344,159.47q-.78,1.47-1.71,2.86c-.62.93-1.21,1.89-1.85,2.81a7.64,7.64,0,0,1-.91,1.08q-.25.24-.51.46c-.1.08-.4.39-.53.39A7.59,7.59,0,0,1,328.4,156a36.19,36.19,0,0,0,3.74-41.19c-.15-.28-.33-.56-.51-.85.74.46,1.46.92,2.18,1.43a35.17,35.17,0,0,1,6.17,5.74,34.1,34.1,0,0,1,8.1,22.13A34.65,34.65,0,0,1,347.87,147Zm6.74-9a33.55,33.55,0,0,1,1.05,4.82C355.33,141.2,355,139.58,354.61,138Z"/></svg>