<svg id="Layer_1" data-name="Layer 1" xmlns="http://www.w3.org/2000/svg" viewBox="0 0 358 358"><defs><style>.cls-1{fill:#1a58d1;}</style></defs><title>smartphone_icon</title><path class="cls-1" d="M254.45,9a35.26,35.26,0,0,1,22.63,19.17,4.41,4.41,0,1,0,8-3.72,44.07,44.07,0,0,0-28.28-24A4.41,4.41,0,0,0,254.45,9Zm33.35,188.6c-6.56-8.25-16.23-14.3-28.88-18.11V56.27A26.5,26.5,0,0,0,232.45,29.8H123.26A26.5,26.5,0,0,0,96.79,56.27v106H89.47A26.5,26.5,0,0,0,63,188.73v1.18A26.29,26.29,0,0,0,67.07,204a26.45,26.45,0,0,0-10.68,21.23v1.18a26.45,26.45,0,0,0,10.68,21.23A26.29,26.29,0,0,0,63,261.66v1.18A26.5,26.5,0,0,0,89.47,289.3h7.34a26.51,26.51,0,0,0,15.47,23.1c.82,9.26,3.61,26.63,13,40.17a8.82,8.82,0,1,0,14.48-10.08c-6-8.62-8.47-19.95-9.49-27.7h72.95c.24.36.48.72.72,1.07a8.82,8.82,0,0,0,14.51-10c-10.52-15.2-7.75-31.66,8.45-50.3,2.71-2.34,10.86-10.35,9.9-21.2-.73-8.24-6.27-15.17-16.47-20.59a8.76,8.76,0,0,0-.94-.43c-.41-.16-10.06-4-8.6-13.86.89-5.94,13-7.3,21-6.76,20.43,1.38,35,6.88,42.2,15.9,5.07,6.38,6.71,14.67,5,25.35q-.55,3.42-1.1,7c-5.08,32.81-11.4,73.65-44,101.16a8.82,8.82,0,0,0,11.38,13.48c37.65-31.77,44.82-78.11,50.05-111.94q.55-3.56,1.08-6.94C298.92,221.08,296,207.91,287.8,197.59ZM96.09,271.65H89.47a8.83,8.83,0,0,1-8.82-8.82v-1.18a8.83,8.83,0,0,1,8.82-8.82h6.61Zm0-36.46H82.86A8.84,8.84,0,0,1,74,226.37v-1.18a8.83,8.83,0,0,1,8.82-8.82H96.09Zm0-36.47H89.47a8.83,8.83,0,0,1-8.82-8.82v-1.18a8.83,8.83,0,0,1,8.82-8.82h6.61Zm27.17,98.42a8.83,8.83,0,0,1-8.82-8.82V281h80.69a47.84,47.84,0,0,0,.64,16.12Zm118-121.26c-2.68-.33-5.43-.61-8.28-.8-22.22-1.5-37.38,6.83-39.61,21.76-2.75,18.44,11,29.28,19.08,32.68,4.8,2.62,6.66,5,6.79,6.34.19,1.9-2.25,5-3.95,6.4a8.51,8.51,0,0,0-1.18,1.11,88.75,88.75,0,0,0-13.61,20H114.43V81.21H241.27Zm0-112.31H114.43v-7.3a8.84,8.84,0,0,1,8.82-8.82H232.45a8.83,8.83,0,0,1,8.82,8.82Zm-8.82-44.15A35.33,35.33,0,0,1,267.74,54.7a4.41,4.41,0,1,0,8.82,0,44.16,44.16,0,0,0-44.11-44.11,4.41,4.41,0,1,0,0,8.82Z"/></svg>